<?xml version="1.0" encoding="iso-8859-1"?>
<!-- Generator: Adobe Illustrator 19.0.0, SVG Export Plug-In . SVG Version: 6.00 Build 0)  -->
<svg version="1.1" id="Layer_1" xmlns="http://www.w3.org/2000/svg" xmlns:xlink="http://www.w3.org/1999/xlink" x="0px" y="0px"
	 viewBox="0 0 512 512" style="enable-background:new 0 0 512 512;" xml:space="preserve">
<polygon style="fill:#FEDC3D;" points="512,430.417 512,486.68 478.242,486.68 444.484,392.191 "/>
<g>
	<polygon style="fill:#FFE777;" points="478.242,430.417 478.242,486.68 0.002,486.68 0.002,430.417 257.171,396.659 	"/>
	<polygon style="fill:#FFE777;" points="512,374.153 512,430.417 478.242,430.417 444.484,335.928 	"/>
</g>
<polygon style="fill:#FFF1B1;" points="478.242,374.153 478.242,430.417 0.002,430.417 0.002,374.153 257.171,340.395 "/>
<polygon style="fill:#FEDC3D;" points="111.492,211.541 0,374.153 511.998,374.153 511.998,25.32 "/>
<polygon style="fill:#DFC136;" points="320.004,199.737 179.008,120.968 179.008,211.541 255.999,291.637 332.99,211.541 "/>
<polygon style="fill:#FFE777;" points="179.008,211.541 0,374.153 0,25.32 179.008,121.519 "/>
<polygon style="fill:#FEDC3D;" points="192.005,199.737 179.008,211.541 0,25.32 "/>
<polygon style="fill:#FFE777;" points="478.24,60.439 478.24,343.49 332.99,211.541 "/>
<polygon style="fill:#FFF1B1;" points="0,25.32 255.999,257.879 511.998,25.32 "/>
<g>
</g>
<g>
</g>
<g>
</g>
<g>
</g>
<g>
</g>
<g>
</g>
<g>
</g>
<g>
</g>
<g>
</g>
<g>
</g>
<g>
</g>
<g>
</g>
<g>
</g>
<g>
</g>
<g>
</g>
</svg>
